<svg width="165" height="165" viewBox="0 0 165 165" fill="none" xmlns="http://www.w3.org/2000/svg">
	<path fill-rule="evenodd" clip-rule="evenodd" d="M82.5 158C124.198 158 158 124.198 158 82.5C158 40.8025 124.198 7 82.5 7C40.8025 7 7 40.8025 7 82.5C7 124.198 40.8025 158 82.5 158ZM82.5 165C128.063 165 165 128.063 165 82.5C165 36.9365 128.063 0 82.5 0C36.9365 0 0 36.9365 0 82.5C0 128.063 36.9365 165 82.5 165Z" fill="#fff" />
	<path d="M69 59C69 65.0751 64.0751 70 58 70C51.9249 70 47 65.0751 47 59C47 52.9249 51.9249 48 58 48C64.0751 48 69 52.9249 69 59Z" fill="#fff" />
	<path d="M118 59C118 65.0751 113.075 70 107 70C100.925 70 96 65.0751 96 59C96 52.9249 100.925 48 107 48C113.075 48 118 52.9249 118 59Z" fill="#fff" />
	<path fill-rule="evenodd" clip-rule="evenodd" d="M125 115L41 115L41 108L125 108L125 115Z" fill="#fff" />
</svg>
