<svg width="165" height="165" viewBox="0 0 165 165" fill="none" xmlns="http://www.w3.org/2000/svg">
	<path fill-rule="evenodd" clip-rule="evenodd" d="M82.5 158C124.198 158 158 124.198 158 82.5C158 40.8025 124.198 7 82.5 7C40.8025 7 7 40.8025 7 82.5C7 124.198 40.8025 158 82.5 158ZM82.5 165C128.063 165 165 128.063 165 82.5C165 36.9365 128.063 0 82.5 0C36.9365 0 0 36.9365 0 82.5C0 128.063 36.9365 165 82.5 165Z" fill="#fff" />
	<path fill-rule="evenodd" clip-rule="evenodd" d="M37.0337 116.75L42.605 119.783C46.5951 113.267 52.3113 107.841 59.1916 104.036C59.2831 103.985 59.3747 103.935 59.4666 103.885C66.4696 100.073 74.4136 98.0656 82.5 98.0656C90.5864 98.0656 98.5303 100.073 105.533 103.885C105.625 103.935 105.717 103.985 105.808 104.036C112.689 107.841 118.405 113.267 122.395 119.783L127.966 116.75C127.91 116.658 127.854 116.567 127.797 116.475C126.612 114.568 125.296 112.745 123.862 111.014C119.728 106.028 114.603 101.818 108.75 98.6317C108.658 98.5817 108.566 98.532 108.474 98.4826C100.561 94.2349 91.6096 92 82.5 92C73.3903 92 64.4393 94.2349 56.5259 98.4826C56.4338 98.532 56.3418 98.5817 56.25 98.6317C50.3972 101.818 45.2723 106.028 41.138 111.014C39.7035 112.745 38.3883 114.568 37.2032 116.475C37.1464 116.567 37.0899 116.658 37.0337 116.75Z" fill="#fff" />
	<path d="M69 59C69 65.0751 64.0751 70 58 70C51.9249 70 47 65.0751 47 59C47 52.9249 51.9249 48 58 48C64.0751 48 69 52.9249 69 59Z" fill="#fff" />
	<path d="M118 59C118 65.0751 113.075 70 107 70C100.925 70 96 65.0751 96 59C96 52.9249 100.925 48 107 48C113.075 48 118 52.9249 118 59Z" fill="#fff" />
</svg>
